{"title":"The Block - S12E24 - Master Bedrooms Revealed","uid":15961595,"size":451035327,"categoryP":"video","categoryS":"tv_shows","magnet":"?xt=urn:btih:b3c7504b7a53a9de14b211ffe0e3eb2a419190d5&amp;dn=The+Block+-+S12E24+-+Master+Bedrooms+Revealed&amp;tr=udp%3A%2F%2Ftracker.leechers-paradise.org%3A6969&amp;tr=udp%3A%2F%2Fzer0day.ch%3A1337&amp;tr=udp%3A%2F%2Fopen.demonii.com%3A1337&amp;tr=udp%3A%2F%2Ftracker.coppersurfer.tk%3A6969&amp;tr=udp%3A%2F%2Fexodus.desync.com%3A6969","seeders":6,"leechers":1,"uploader":"Bullrout","files":1,"time":1475668937,"description":"The Block - S12E24 - Master Bedrooms Revealed\r\n\r\nTonight, the teams race to reveal their master bedrooms and walk in robes. The judges are underwhelmed by some efforts then overwhelmed by impressive features and luxury finishes. Only one team can take home the much need $10,000 in prize money.\r\n\r\nComplete name : The Block - S12E24 - Master Bedrooms Revealed.mp4\r\nFormat : MPEG-4\r\nFormat profile : Base Media / Version 2\r\nCodec ID : mp42 (mp42/isom/avc1)\r\nFile size : 430 MiB\r\nDuration : 54 min 29 s\r\nOverall bit rate mode : Variable\r\nOverall bit rate : 1 104 kb/s\r\n\r\nVideo\r\nID : 2\r\nFormat : AVC\r\nFormat/Info : Advanced Video Codec\r\nFormat profile :   \r\nFormat settings, CABAC : Yes\r\nFormat settings, ReFrames : 3 frames\r\nCodec ID : avc1\r\nCodec ID/Info : Advanced Video Coding\r\nDuration : 54 min 29 s\r\nBit rate mode : Variable\r\nBit rate : 972 kb/s\r\nMaximum bit rate : 1 000 kb/s\r\nWidth : 720 pixels\r\nHeight : 404 pixels\r\nDisplay aspect ratio : 16:9\r\nOriginal display aspect ratio : 16:9\r\nFrame rate mode : Constant\r\nFrame rate : 25.000 FPS\r\nStandard : PAL\r\nColor space : YUV\r\nChroma subsampling : 4:2:0\r\nBit depth : 8 bits\r\nScan type : Progressive\r\nBits/(Pixel*Frame) : 0.134\r\nStream size : 379 MiB (88%)\r\nWriting library : x264 core 112\r\nColor range : Limited\r\nColor primaries : BT.601 PAL\r\nTransfer characteristics : BT.470 System B, BT.470 System G\r\nMatrix coefficients : BT.601\r\n\r\nAudio\r\nID : 1\r\nFormat : AAC\r\nFormat/Info : Advanced Audio Codec\r\nFormat profile : LC\r\nCodec ID : 40\r\nDuration : 54 min 29 s\r\nBit rate mode : Variable\r\nBit rate : 128 kb/s\r\nMaximum bit rate : 576 kb/s\r\nChannel(s) : 2 channels\r\nChannel positions : Front: L R\r\nSampling rate : 48.0 kHz\r\nFrame rate : 46.875 FPS (1024 spf)\r\nCompression mode : Lossy\r\nStream size : 49.9 MiB (12%)","torrent":{"xt":"urn:btih:b3c7504b7a53a9de14b211ffe0e3eb2a419190d5","amp;dn":"The+Block+-+S12E24+-+Master+Bedrooms+Revealed","amp;tr":["udp%3A%2F%2Ftracker.leechers-paradise.org%3A6969","udp%3A%2F%2Fzer0day.ch%3A1337","udp%3A%2F%2Fopen.demonii.com%3A1337","udp%3A%2F%2Ftracker.coppersurfer.tk%3A6969","udp%3A%2F%2Fexodus.desync.com%3A6969"],"infoHash":"b3c7504b7a53a9de14b211ffe0e3eb2a419190d5","infoHashBuffer":{"type":"Buffer","data":[179,199,80,75,122,83,169,222,20,178,17,255,224,227,235,42,65,145,144,213]},"announce":[],"urlList":[]}}